<svg xmlns="http://www.w3.org/2000/svg" viewBox="47 57 419.4 132.5" width="419.4" height="132.5" role="img" aria-label="Origen">
  <g id="origen-logo">
    <g id="mark">
      <ellipse cx="108.5" cy="112.5" rx="51.5" ry="45.5" fill="#000000"></ellipse>
      <path d="M 74.60 93.46 A 33.5 33.5 0 1 0 135.99 111.29 Z" fill="#5EBC66"></path>
    </g>
    <path id="wordmark" d="M179.61 155L165 155L165 94.34L178.72 94.34L178.72 102.92Q180.72 98.35 184.29 96.35L184.29 96.35Q188.75 93.67 195.11 93.67L195.11 93.67L198.68 93.67L198.68 106.6L193.44 106.6Q187.19 106.6 183.4 110.45Q179.61 114.3 179.61 121.21L179.61 121.21L179.61 155ZM219.89 155L205.29 155L205.29 94.34L219.89 94.34L219.89 155ZM209.5 67.5L215.7 67.5Q220.9 67.5 220.9 72.7L220.9 78.9Q220.9 84.1 215.7 84.1L209.5 84.1Q204.3 84.1 204.3 78.9L204.3 72.7Q204.3 67.5 209.5 67.5ZM261.41 179.53L261.41 179.53Q254.6 179.53 248.81 177.3Q243.01 175.07 238.83 171.11Q234.64 167.15 232.75 161.8L232.75 161.8L246.35 156.67Q247.69 160.91 251.65 163.53Q255.61 166.15 261.41 166.15L261.41 166.15Q265.87 166.15 269.27 164.48Q272.67 162.81 274.56 159.63Q276.46 156.45 276.46 151.99L276.46 151.99L276.46 145.41Q274.01 148.09 270.88 149.76L270.88 149.76Q265.64 152.55 258.95 152.55L258.95 152.55Q250.48 152.55 243.79 148.64Q237.1 144.74 233.31 137.94Q229.51 131.14 229.51 122.66L229.51 122.66Q229.51 114.08 233.31 107.38Q237.1 100.69 243.68 96.85Q250.26 93 258.62 93L258.62 93Q265.42 93 270.66 95.79L270.66 95.79Q274.34 97.91 277.24 101.36L277.24 101.36L277.24 94.34L291.07 94.34L291.07 151.99Q291.07 159.91 287.22 166.15Q283.37 172.4 276.74 175.96Q270.1 179.53 261.41 179.53ZM260.74 139.05L260.74 139.05Q265.42 139.05 268.93 136.99Q272.45 134.93 274.45 131.25Q276.46 127.57 276.46 122.77L276.46 122.77Q276.46 118.09 274.4 114.35Q272.33 110.62 268.82 108.5Q265.31 106.38 260.74 106.38Q256.17 106.38 252.49 108.5Q248.81 110.62 246.74 114.35Q244.68 118.09 244.68 122.77Q244.68 127.46 246.74 131.14Q248.81 134.82 252.43 136.94Q256.05 139.05 260.74 139.05ZM332.02 156.34L332.02 156.34Q322.66 156.34 315.63 152.1Q308.61 147.86 304.7 140.62Q300.8 133.37 300.8 124.56L300.8 124.56Q300.8 115.41 304.76 108.33Q308.72 101.25 315.58 97.13Q322.43 93 330.91 93L330.91 93Q338.04 93 343.45 95.34Q348.86 97.68 352.65 101.81Q356.44 105.94 358.45 111.23Q360.46 116.53 360.46 122.66L360.46 122.66Q360.46 124.22 360.29 125.9Q360.12 127.57 359.68 128.79L359.68 128.79L315.97 128.79Q316.3 131.92 317.53 134.48L317.53 134.48Q319.42 138.83 323.27 141.17Q327.12 143.51 332.13 143.51Q337.15 143.51 340.67 141.4Q344.18 139.28 346.19 135.71L346.19 135.71L358.01 141.51Q356.22 145.86 352.43 149.2Q348.64 152.55 343.45 154.44Q338.27 156.34 332.02 156.34ZM316.3 117.64L316.3 117.64L344.85 117.64Q344.74 115.53 344.07 113.74L344.07 113.74Q342.51 109.73 339.1 107.38Q335.7 105.04 330.91 105.04L330.91 105.04Q326.34 105.04 322.77 107.33Q319.2 109.62 317.42 113.96L317.42 113.96Q316.63 115.75 316.3 117.64ZM384.69 155L370.08 155L370.08 94.34L383.79 94.34L383.79 101.81Q385.91 98.02 389.71 95.79L389.71 95.79Q394.5 93 400.97 93L400.97 93Q407.66 93 412.84 95.9Q418.03 98.8 420.93 103.98Q423.83 109.17 423.83 115.97L423.83 115.97L423.83 155L409.22 155L409.22 119.43Q409.22 115.41 407.66 112.51Q406.1 109.62 403.37 108Q400.63 106.38 396.95 106.38L396.95 106.38Q393.38 106.38 390.6 108Q387.81 109.62 386.25 112.51Q384.69 115.41 384.69 119.43L384.69 119.43L384.69 155ZM445.7 137.6L452.3 137.6Q457.7 137.6 457.7 143L457.7 149.6Q457.7 155 452.3 155L445.7 155Q440.3 155 440.3 149.6L440.3 143Q440.3 137.6 445.7 137.6Z" fill="#000000"></path>
  </g>
</svg>